<svg width="187" height="31" viewBox="0 0 187 31" fill="none" xmlns="http://www.w3.org/2000/svg">
<path d="M7.88753 17.242C6.41915 17.242 5.17603 16.9998 4.15603 16.511V17.5905C4.15603 18.2535 4.48328 18.6488 5.14203 18.772L11.1345 19.8855C12.1312 20.0789 13.0322 20.3318 13.8375 20.642C14.6472 20.948 15.2953 21.3858 15.784 21.951C16.277 22.512 16.5235 23.2792 16.5235 24.2545C16.5235 25.2958 16.1835 26.2563 15.5035 27.136C14.8235 28.02 13.8163 28.734 12.486 29.278C11.16 29.822 9.50678 30.094 7.53053 30.094C5.83053 30.094 4.48115 29.9177 3.48453 29.567C2.48578 29.2143 1.78028 28.7617 1.36803 28.207C0.953653 27.6567 0.747528 27.0723 0.747528 26.456C0.747528 25.691 1.00465 24.9197 1.52103 24.144C2.04165 23.3663 2.68553 22.7479 3.45053 22.2825C2.79178 22.0275 2.31365 21.7003 2.01403 21.2965C1.71865 20.8885 1.57203 20.4529 1.57203 19.9875C1.57203 19.5625 1.68253 19.163 1.90353 18.789C2.12878 18.415 2.40078 18.0389 2.71953 17.6585L3.77353 16.3155C2.22015 15.4273 1.44453 14.0248 1.44453 12.108C1.44453 10.578 1.99065 9.33704 3.08503 8.38504C4.17728 7.42879 5.78803 6.94854 7.91303 6.94854C9.00103 6.94854 9.95303 7.07604 10.769 7.33104C11.585 7.58604 12.2587 7.94729 12.792 8.41054C13.472 8.30854 14.1138 8.13641 14.7215 7.89204C15.3272 7.64341 15.8733 7.30554 16.362 6.88054L16.8125 7.20354V8.82704H13.2085C13.9735 9.67704 14.356 10.7714 14.356 12.108C14.356 13.5998 13.8078 14.828 12.7155 15.797C11.6212 16.7618 10.0125 17.242 7.88753 17.242ZM7.85353 16.6045C8.70353 16.6045 9.32403 16.256 9.71503 15.559C10.1103 14.8578 10.31 13.6869 10.31 12.0485C10.31 10.4123 10.1103 9.25841 9.71503 8.58904C9.32403 7.92179 8.72265 7.58604 7.91303 7.58604C7.13103 7.58604 6.53603 7.93241 6.12803 8.62304C5.72428 9.31579 5.52453 10.476 5.52453 12.108C5.52453 13.7464 5.70728 14.9045 6.07703 15.5845C6.45103 16.2645 7.04178 16.6045 7.85353 16.6045ZM3.10203 25.436C3.10203 26.6877 3.48878 27.6312 4.26653 28.2665C5.04215 28.9062 6.26828 29.227 7.94703 29.227C9.70865 29.227 11.0347 28.9402 11.925 28.3685C12.8197 27.7948 13.268 26.9873 13.268 25.946C13.268 25.351 13.0492 24.8708 12.6135 24.5095C12.1822 24.1525 11.4448 23.8763 10.4035 23.685L4.63203 22.597C4.46203 22.5588 4.29203 22.5163 4.12203 22.4695C3.82665 22.8945 3.58228 23.379 3.39103 23.923C3.19765 24.467 3.10203 24.9707 3.10203 25.436Z" fill="#F15B5F"/>
<path d="M22.5176 23.2345C21.2809 23.2345 20.2439 22.886 19.4066 22.189C18.5672 21.4878 18.1486 20.4763 18.1486 19.1545C18.1486 18.1579 18.6586 17.2399 19.6786 16.4005C20.6986 15.5633 22.3009 14.93 24.4896 14.505C24.8296 14.437 25.2121 14.3669 25.6371 14.2925C26.0621 14.2203 26.5084 14.1395 26.9801 14.0545V11.5385C26.9801 10.0935 26.8037 9.07991 26.4531 8.49553C26.1004 7.91328 25.5542 7.62003 24.8126 7.62003C24.3026 7.62003 23.8967 7.78578 23.5971 8.11303C23.3017 8.44241 23.1126 9.00978 23.0276 9.81303L22.9596 10.17C22.9192 11.0838 22.6961 11.751 22.2881 12.176C21.8844 12.601 21.3871 12.8135 20.7921 12.8135C20.2417 12.8135 19.7849 12.6435 19.4236 12.3035C19.0602 11.9635 18.8796 11.5088 18.8796 10.935C18.8796 10.0638 19.1814 9.32853 19.7891 8.73353C20.3947 8.13853 21.1959 7.69441 22.1946 7.39903C23.1912 7.09941 24.2771 6.94853 25.4501 6.94853C27.3371 6.94853 28.7949 7.41178 29.8276 8.33403C30.8582 9.25841 31.3746 10.7629 31.3746 12.8475V19.8855C31.3746 20.8439 31.8209 21.322 32.7176 21.322H33.4146L33.7036 21.577C33.2999 22.087 32.8579 22.4823 32.3776 22.7585C31.9016 23.0348 31.2259 23.175 30.3546 23.175C29.4196 23.175 28.6801 22.9562 28.1361 22.5205C27.5964 22.0849 27.2436 21.5048 27.0736 20.778C26.4319 21.458 25.7774 22.0403 25.1101 22.5205C24.4407 22.9965 23.5759 23.2345 22.5176 23.2345ZM24.4556 21.288C24.8806 21.288 25.2801 21.1903 25.6541 20.9905C26.0281 20.7865 26.4701 20.472 26.9801 20.047V14.692C26.7634 14.7388 26.5487 14.7834 26.3341 14.828C26.1237 14.8684 25.8794 14.9088 25.6031 14.947C24.6277 15.202 23.8479 15.6334 23.2656 16.239C22.6812 16.8468 22.3901 17.6585 22.3901 18.6785C22.3901 19.5519 22.5899 20.2064 22.9936 20.642C23.3952 21.0734 23.8819 21.288 24.4556 21.288Z" fill="#F15B5F"/>
<path d="M34.3703 22.7585V22.4355L34.8208 22.308C35.2225 22.206 35.503 22.0275 35.6623 21.7725C35.8196 21.5175 35.911 21.1775 35.9343 20.7525V10.7735C35.9343 10.3039 35.8578 9.95753 35.7048 9.73653C35.5561 9.51553 35.2713 9.36253 34.8463 9.27753L34.3703 9.15003V8.82703L39.8188 6.98253L40.1418 7.29703L40.3968 9.46453C41.0981 8.76328 41.9013 8.16828 42.8023 7.67953C43.7033 7.19291 44.6426 6.94853 45.6243 6.94853C46.6443 6.94853 47.4603 7.15678 48.0723 7.56903C48.6886 7.98341 49.1603 8.62728 49.4833 9.49853C50.31 8.71228 51.2046 8.09178 52.1693 7.63703C53.1383 7.17803 54.0776 6.94853 54.9913 6.94853C56.5043 6.94853 57.6136 7.31191 58.3233 8.03653C59.0373 8.75691 59.3943 9.89378 59.3943 11.445V20.778C59.3943 21.611 59.7768 22.1338 60.5418 22.342L60.8903 22.4355V22.7585H53.5293V22.4355L53.8438 22.342C54.2518 22.2188 54.5345 22.0275 54.6938 21.7725C54.8511 21.5175 54.9318 21.1775 54.9318 20.7525V10.9945C54.9318 10.1063 54.7703 9.49641 54.4473 9.16703C54.1286 8.83341 53.6228 8.66553 52.9258 8.66553C52.3691 8.66553 51.8315 8.79091 51.3108 9.03953C50.7881 9.28391 50.242 9.64941 49.6703 10.136C49.7766 10.476 49.8446 10.8479 49.8743 11.2495C49.9083 11.6533 49.9253 12.0783 49.9253 12.5245V20.778C49.9466 21.611 50.3291 22.1338 51.0728 22.342L51.3618 22.4355V22.7585H43.9668V22.4355L44.4088 22.308C44.8168 22.1848 45.0995 21.9999 45.2588 21.7555C45.4161 21.5133 45.4968 21.1775 45.4968 20.7525V11.0285C45.4968 10.1785 45.3396 9.57291 45.0293 9.20953C44.7233 8.84828 44.1985 8.66553 43.4568 8.66553C42.9681 8.66553 42.4793 8.79091 41.9863 9.03953C41.4976 9.28391 40.9876 9.63878 40.4563 10.102V20.778C40.4563 21.611 40.8303 22.1338 41.5783 22.342L41.8588 22.4355V22.7585H34.3703Z" fill="#F15B5F"/>
<path d="M70.1311 6.94853C71.5123 6.94853 72.6917 7.23328 73.6671 7.79853C74.6467 8.35953 75.3968 9.12453 75.9196 10.0935C76.4402 11.0583 76.7016 12.1548 76.7016 13.383C76.7016 13.621 76.6888 13.8633 76.6676 14.1055C76.6442 14.3499 76.6017 14.5688 76.5401 14.76H67.0456C67.0626 17.055 67.4706 18.7083 68.2696 19.7155C69.0686 20.7249 70.2522 21.2285 71.8226 21.2285C72.8872 21.2285 73.7478 21.0585 74.4066 20.7185C75.0632 20.3785 75.6773 19.8813 76.2511 19.2225L76.5741 19.503C75.9153 20.676 75.0377 21.5919 73.9391 22.2485C72.8447 22.9052 71.5336 23.2345 70.0036 23.2345C68.4948 23.2345 67.1582 22.9115 65.9916 22.2655C64.8228 21.6153 63.9091 20.6845 63.2461 19.4775C62.5873 18.2663 62.2601 16.8213 62.2601 15.1425C62.2601 13.3979 62.6426 11.9168 63.4076 10.697C64.1726 9.47303 65.1543 8.54441 66.3571 7.90903C67.5577 7.26941 68.8157 6.94853 70.1311 6.94853ZM70.0376 7.58603C69.4192 7.58603 68.8922 7.77303 68.4566 8.14703C68.0252 8.51678 67.6852 9.17341 67.4366 10.119C67.1922 11.0668 67.0626 12.4013 67.0456 14.1225H72.4941C72.7023 11.8063 72.6152 10.136 72.2306 9.11603C71.8502 8.09603 71.1192 7.58603 70.0376 7.58603Z" fill="#F15B5F"/>
<path d="M85.0564 23.2345C83.8026 23.2345 82.6764 22.954 81.6734 22.393C80.6746 21.8278 79.8841 20.9544 79.3019 19.775C78.7175 18.5978 78.4264 17.0848 78.4264 15.236C78.4264 13.366 78.7536 11.8233 79.4124 10.6035C80.0754 9.37953 80.9466 8.46578 82.0304 7.85803C83.112 7.25241 84.2914 6.94853 85.5664 6.94853C86.308 6.94853 87.0199 7.02291 87.6999 7.16953C88.3799 7.31828 88.9855 7.54141 89.5189 7.84103V3.69303C89.5189 3.25103 89.4466 2.92591 89.3064 2.71553C89.1704 2.50091 88.8814 2.35003 88.4394 2.26503L87.8274 2.13753V1.81453L93.6329 0.412033L93.9814 0.701033L93.8539 5.16353V20.7525C93.8539 21.1775 93.9261 21.5239 94.0749 21.7895C94.2279 22.0509 94.5041 22.2358 94.9079 22.342L95.1969 22.4355V22.7585L89.7399 23.107L89.4594 21.9595C88.8814 22.3463 88.2269 22.6544 87.4959 22.886C86.7649 23.1177 85.951 23.2345 85.0564 23.2345ZM86.9094 22.053C87.7976 22.053 88.6136 21.7895 89.3574 21.2625V8.60603C88.5754 8.09603 87.7679 7.84103 86.9349 7.84103C85.9149 7.84103 85.0415 8.43178 84.3169 9.60903C83.5965 10.7884 83.2374 12.6414 83.2374 15.168C83.2374 17.701 83.5774 19.4839 84.2574 20.5145C84.9374 21.5409 85.8214 22.053 86.9094 22.053Z" fill="#F79E5D"/>
<path d="M101.253 23.2345C100.016 23.2345 98.9788 22.886 98.1416 22.189C97.3022 21.4878 96.8836 20.4763 96.8836 19.1545C96.8836 18.1579 97.3936 17.2399 98.4136 16.4005C99.4336 15.5633 101.036 14.93 103.225 14.505C103.565 14.437 103.947 14.3669 104.372 14.2925C104.797 14.2203 105.243 14.1395 105.715 14.0545V11.5385C105.715 10.0935 105.539 9.07991 105.188 8.49553C104.835 7.91328 104.289 7.62003 103.548 7.62003C103.038 7.62003 102.632 7.78578 102.332 8.11303C102.037 8.44241 101.848 9.00978 101.763 9.81303L101.695 10.17C101.654 11.0838 101.431 11.751 101.023 12.176C100.619 12.601 100.122 12.8135 99.5271 12.8135C98.9767 12.8135 98.5198 12.6435 98.1586 12.3035C97.7952 11.9635 97.6146 11.5088 97.6146 10.935C97.6146 10.0638 97.9163 9.32853 98.5241 8.73353C99.1297 8.13853 99.9308 7.69441 100.93 7.39903C101.926 7.09941 103.012 6.94853 104.185 6.94853C106.072 6.94853 107.53 7.41178 108.563 8.33403C109.593 9.25841 110.11 10.7629 110.11 12.8475V19.8855C110.11 20.8439 110.556 21.322 111.453 21.322H112.15L112.439 21.577C112.035 22.087 111.593 22.4823 111.113 22.7585C110.637 23.0348 109.961 23.175 109.09 23.175C108.155 23.175 107.415 22.9562 106.871 22.5205C106.331 22.0849 105.979 21.5048 105.809 20.778C105.167 21.458 104.512 22.0403 103.845 22.5205C103.176 22.9965 102.311 23.2345 101.253 23.2345ZM103.191 21.288C103.616 21.288 104.015 21.1903 104.389 20.9905C104.763 20.7865 105.205 20.472 105.715 20.047V14.692C105.498 14.7388 105.284 14.7834 105.069 14.828C104.859 14.8684 104.614 14.9088 104.338 14.947C103.363 15.202 102.583 15.6334 102.001 16.239C101.416 16.8468 101.125 17.6585 101.125 18.6785C101.125 19.5519 101.325 20.2064 101.729 20.642C102.13 21.0734 102.617 21.288 103.191 21.288Z" fill="#F79E5D"/>
<path d="M116.038 30.4085C115.188 30.4085 114.512 30.196 114.015 29.771C113.515 29.346 113.267 28.8042 113.267 28.1475C113.267 27.5525 113.479 27.0723 113.904 26.711C114.329 26.3477 114.807 26.167 115.341 26.167C115.868 26.167 116.312 26.2775 116.675 26.4985C117.037 26.7238 117.357 27.051 117.636 27.476L117.857 27.731C118.32 28.3707 118.788 28.36 119.259 27.697C119.451 27.3783 119.669 26.9597 119.914 26.439C120.156 25.9163 120.437 25.2235 120.755 24.3565L114.576 9.55804C114.423 9.15641 114.261 8.83341 114.091 8.58904C113.921 8.34679 113.645 8.13854 113.267 7.96854L112.689 7.74754V7.42454H120.628V7.71354L119.99 7.96854C119.525 8.11729 119.287 8.35529 119.276 8.68254C119.264 9.01191 119.344 9.42204 119.514 9.91504L122.829 18.517L125.983 9.81304C126.153 9.32641 126.214 8.91841 126.17 8.58904C126.129 8.26179 125.866 8.03229 125.379 7.90054L124.708 7.74754V7.42454H129.136V7.74754L128.439 7.96854C127.951 8.11729 127.611 8.32979 127.419 8.60604C127.226 8.88441 127.045 9.26691 126.875 9.75354L121.741 23.7445C120.913 25.9758 120.086 27.646 119.259 28.751C118.431 29.856 117.357 30.4085 116.038 30.4085Z" fill="#F79E5D"/>
<path d="M137.149 17.242C135.68 17.242 134.437 16.9998 133.417 16.511V17.5905C133.417 18.2535 133.745 18.6488 134.403 18.772L140.396 19.8855C141.392 20.0789 142.293 20.3318 143.099 20.642C143.908 20.948 144.557 21.3858 145.045 21.951C145.538 22.512 145.785 23.2792 145.785 24.2545C145.785 25.2958 145.445 26.2563 144.765 27.136C144.085 28.02 143.078 28.734 141.747 29.278C140.421 29.822 138.768 30.094 136.792 30.094C135.092 30.094 133.742 29.9177 132.746 29.567C131.747 29.2143 131.042 28.7617 130.629 28.207C130.215 27.6567 130.009 27.0723 130.009 26.456C130.009 25.691 130.266 24.9197 130.782 24.144C131.303 23.3663 131.947 22.7479 132.712 22.2825C132.053 22.0275 131.575 21.7003 131.275 21.2965C130.98 20.8885 130.833 20.4529 130.833 19.9875C130.833 19.5625 130.944 19.163 131.165 18.789C131.39 18.415 131.662 18.0389 131.981 17.6585L133.035 16.3155C131.481 15.4273 130.706 14.0248 130.706 12.108C130.706 10.578 131.252 9.33704 132.346 8.38504C133.439 7.42879 135.049 6.94854 137.174 6.94854C138.262 6.94854 139.214 7.07604 140.03 7.33104C140.846 7.58604 141.52 7.94729 142.053 8.41054C142.733 8.30854 143.375 8.13641 143.983 7.89204C144.588 7.64341 145.135 7.30554 145.623 6.88054L146.074 7.20354V8.82704H142.47C143.235 9.67704 143.617 10.7714 143.617 12.108C143.617 13.5998 143.069 14.828 141.977 15.797C140.882 16.7618 139.274 17.242 137.149 17.242ZM137.115 16.6045C137.965 16.6045 138.585 16.256 138.976 15.559C139.372 14.8578 139.571 13.6869 139.571 12.0485C139.571 10.4123 139.372 9.25841 138.976 8.58904C138.585 7.92179 137.984 7.58604 137.174 7.58604C136.392 7.58604 135.797 7.93241 135.389 8.62304C134.986 9.31579 134.786 10.476 134.786 12.108C134.786 13.7464 134.969 14.9045 135.338 15.5845C135.712 16.2645 136.303 16.6045 137.115 16.6045ZM132.363 25.436C132.363 26.6877 132.75 27.6312 133.528 28.2665C134.303 28.9062 135.53 29.227 137.208 29.227C138.97 29.227 140.296 28.9402 141.186 28.3685C142.081 27.7948 142.529 26.9873 142.529 25.946C142.529 25.351 142.31 24.8708 141.875 24.5095C141.443 24.1525 140.706 23.8763 139.665 23.685L133.893 22.597C133.723 22.5588 133.553 22.5163 133.383 22.4695C133.088 22.8945 132.844 23.379 132.652 23.923C132.459 24.467 132.363 24.9707 132.363 25.436Z" fill="white"/>
<path d="M147.121 22.7585V22.4355L147.597 22.308C148.022 22.1848 148.313 21.9935 148.472 21.7385C148.636 21.4835 148.719 21.1563 148.719 20.7525V10.7735C148.719 10.3039 148.636 9.95753 148.472 9.73653C148.313 9.51553 148.022 9.36253 147.597 9.27753L147.121 9.15003V8.82703L152.603 6.98253L152.926 7.29703L153.207 10.0425V10.2975C153.507 9.70253 153.895 9.15641 154.371 8.65703C154.852 8.15341 155.385 7.74328 155.969 7.42453C156.552 7.10791 157.13 6.94853 157.703 6.94853C158.513 6.94853 159.131 7.17378 159.556 7.62003C159.981 8.06203 160.194 8.62303 160.194 9.30303C160.194 10.0298 159.984 10.5908 159.565 10.986C159.151 11.377 158.658 11.5725 158.086 11.5725C157.196 11.5725 156.411 11.1263 155.731 10.2295L155.663 10.17C155.453 9.87041 155.209 9.70678 154.932 9.67703C154.654 9.64303 154.399 9.77478 154.167 10.068C153.951 10.2614 153.776 10.4909 153.64 10.7565C153.504 11.0243 153.371 11.326 153.241 11.666V20.557C153.241 21.407 153.611 21.9404 154.354 22.155L155.374 22.4355V22.7585H147.121Z" fill="white"/>
<path d="M165.002 5.29104C164.282 5.29104 163.67 5.06579 163.166 4.61104C162.667 4.15204 162.418 3.57191 162.418 2.86854C162.418 2.14391 162.667 1.55954 163.166 1.11754C163.67 0.671288 164.282 0.446037 165.002 0.446037C165.727 0.446037 166.333 0.671288 166.821 1.11754C167.308 1.55954 167.552 2.14391 167.552 2.86854C167.552 3.57191 167.308 4.15204 166.821 4.61104C166.333 5.06579 165.727 5.29104 165.002 5.29104ZM161.245 22.7585V22.4355L161.687 22.308C162.112 22.1848 162.403 21.9935 162.563 21.7385C162.72 21.4835 162.801 21.1435 162.801 20.7185V10.7395C162.801 10.2933 162.72 9.95754 162.563 9.73654C162.403 9.51554 162.112 9.36254 161.687 9.27754L161.245 9.17554V8.86104L167.076 6.98254L167.391 7.29704L167.297 11.8275V20.7525C167.297 21.1775 167.376 21.5175 167.535 21.7725C167.693 22.0275 167.977 22.2188 168.385 22.342L168.7 22.4355V22.7585H161.245Z" fill="white"/>
<path d="M170.196 22.7585V22.4355L170.578 22.308C171.343 22.053 171.726 21.5239 171.726 20.7185V3.66753C171.726 3.24253 171.641 2.91953 171.471 2.69853C171.301 2.47328 171.003 2.30541 170.578 2.19703L170.17 2.10353V1.78053L176.001 0.412033L176.384 0.701033L176.256 5.16353V16.0605C176.256 16.8489 176.26 17.6309 176.273 18.4065C176.284 19.1843 176.29 19.9535 176.29 20.7185C176.29 21.1435 176.375 21.4899 176.545 21.7555C176.715 22.0233 177 22.2188 177.404 22.342L177.82 22.4355V22.7585H170.196Z" fill="white"/>
<path d="M179.312 22.7585V22.4355L179.694 22.308C180.459 22.053 180.842 21.5239 180.842 20.7185V3.66753C180.842 3.24253 180.757 2.91953 180.587 2.69853C180.417 2.47328 180.119 2.30541 179.694 2.19703L179.286 2.10353V1.78053L185.117 0.412033L185.5 0.701033L185.372 5.16353V16.0605C185.372 16.8489 185.376 17.6309 185.389 18.4065C185.4 19.1843 185.406 19.9535 185.406 20.7185C185.406 21.1435 185.491 21.4899 185.661 21.7555C185.831 22.0233 186.116 22.2188 186.52 22.342L186.936 22.4355V22.7585H179.312Z" fill="white"/>
</svg>
